<?xml version="1.0" standalone="no"?>
<!DOCTYPE svg PUBLIC "-//W3C//DTD SVG 20010904//EN"
 "http://www.w3.org/TR/2001/REC-SVG-20010904/DTD/svg10.dtd">
<svg version="1.0" xmlns="http://www.w3.org/2000/svg"
 width="64.000000pt" height="64.000000pt" viewBox="0 0 64.000000 64.000000"
 preserveAspectRatio="xMidYMid meet">

<g transform="translate(0.000000,64.000000) scale(0.100000,-0.100000)"
fill="#000000" stroke="none">
<path d="M210 606 c0 -8 -11 -18 -25 -22 -30 -7 -30 -11 -8 -36 13 -14 14 -21
5 -30 -18 -18 -15 -25 14 -32 15 -4 32 -13 40 -20 11 -11 10 -16 -5 -30 -10
-9 -22 -16 -28 -16 -6 0 -22 -9 -37 -21 -19 -15 -26 -30 -26 -54 0 -18 -7 -38
-15 -45 -8 -7 -15 -20 -15 -29 0 -10 -12 -28 -26 -42 -20 -19 -25 -31 -21 -54
3 -18 -1 -39 -9 -50 -21 -28 -17 -59 9 -83 27 -25 69 -29 87 -7 8 9 22 12 40
8 22 -4 35 1 54 20 14 15 26 35 26 47 0 24 26 38 43 21 29 -29 107 8 107 50 0
9 11 26 25 39 32 30 32 70 1 99 -14 13 -22 30 -19 37 4 12 8 12 18 -2 6 -9 17
-14 22 -11 6 4 18 -2 28 -13 23 -25 31 -25 38 -1 3 14 11 17 31 14 24 -5 26
-4 20 26 -4 20 -3 31 5 31 19 0 12 13 -25 53 -39 41 -69 47 -105 18 -28 -22
-99 -37 -99 -21 0 18 64 69 88 70 12 0 22 5 22 10 0 6 -9 10 -20 10 -10 0 -24
9 -30 20 -14 25 -50 27 -50 2 0 -10 5 -23 12 -30 9 -9 7 -16 -7 -32 -24 -26
-37 -16 -30 24 7 36 -23 85 -53 84 -9 0 -32 3 -49 7 -27 6 -33 4 -33 -9z m56
-27 c3 -6 14 -9 24 -6 11 3 21 -2 25 -11 8 -21 3 -23 -33 -10 -35 14 -57 2
-29 -16 48 -29 53 -35 37 -46 -11 -7 -16 -5 -18 5 -2 8 -14 15 -27 15 -17 0
-25 7 -27 23 -6 40 29 75 48 46z m139 -29 c3 -5 1 -10 -4 -10 -6 0 -11 5 -11
10 0 6 2 10 4 10 3 0 8 -4 11 -10z m-67 -93 c4 -19 -6 -21 -27 -8 -16 10 -5
34 12 28 7 -2 13 -11 15 -20z m172 -6 c0 -5 12 -12 26 -15 18 -5 24 -12 20
-22 -3 -9 -6 -21 -6 -27 0 -7 -11 -17 -25 -23 -21 -10 -25 -9 -30 8 -5 13 -12
17 -26 13 -15 -5 -19 -2 -19 14 0 25 9 26 36 6 24 -18 44 -19 44 -1 0 8 -13
20 -30 28 -34 15 -39 28 -10 28 11 0 20 -4 20 -9z"/>
</g>
</svg>
